<svg width="32" height="33" viewBox="0 0 32 33" fill="none" xmlns="http://www.w3.org/2000/svg">
<path d="M32 0.674988H0V32.675H32V0.674988Z" fill="#00A1E2"/>
<path d="M25.3107 10.7442V24.5462C25.3109 24.8823 25.2116 25.2109 25.0252 25.4906C24.8388 25.7703 24.5737 25.9884 24.2634 26.1175C23.9531 26.2466 23.6115 26.2809 23.2817 26.216C22.9519 26.1511 22.6488 25.9899 22.4106 25.7528L10.0763 12.8682V25.9927L0.105835 26.0774V22.6128H6.69635V8.80377C6.69017 8.46089 6.7878 8.12415 6.97643 7.83775C7.16506 7.55135 7.43587 7.32867 7.75333 7.19894C8.07078 7.06921 8.42004 7.0385 8.75526 7.11082C9.09049 7.18314 9.39601 7.35513 9.63174 7.60421L21.9378 20.4818V7.3643H31.8589V10.7442H25.3107Z" fill="white"/>
</svg>
