<svg id="Слой_1" data-name="Слой 1" xmlns="http://www.w3.org/2000/svg" viewBox="0 0 383.2 45.92"><defs><style>.cls-1{fill:#00a1e2;stroke:#1d1a15;stroke-miterlimit:22.93;stroke-width:0.57px;}.cls-2{fill:#fff;fill-rule:evenodd;}</style></defs><title>дщпщ</title><rect class="cls-1" x="45.35" y="0.28" width="45.35" height="45.35"/><path class="cls-2" d="M385.07,306.05H403.7V286.48a2.39,2.39,0,0,1,4.44-1.25L419,304.17l10.9-18.94a2.42,2.42,0,0,1,4.49,1.25v19.57h54.81v4.79H429.61V295.12l-8.49,14.93a2.38,2.38,0,0,1-4.1,0l-8.53-14.93v15.72H290.64V289.23H273.29L263.14,309.9a2.43,2.43,0,0,1-4.3,0L248.7,289.23H231.06c2.07,3.31,1.53,7.2,1.53,11.49a10.15,10.15,0,0,1-10.12,10.12h-8.1a10.15,10.15,0,0,1-10.11-10.12c0-4.29-.55-8.18,1.52-11.49H187.26V308.8a2.41,2.41,0,0,1-4.11,1.71l-17.48-18.27v18.6H106v-4.79h54.84V286.48a2.41,2.41,0,0,1,4.11-1.69L182.48,303V284.44h69.23l9.28,19,9.31-19h25.13v21.61h19a11.1,11.1,0,0,1-1.53-5.2v-6.29A10.15,10.15,0,0,1,323,284.44h8.1a10.15,10.15,0,0,1,10.12,10.12h-4.73a5.41,5.41,0,0,0-5.39-5.39H323a5.41,5.41,0,0,0-5.39,5.39v6.16a5.42,5.42,0,0,0,4.57,5.33h9.74a5.46,5.46,0,0,0,4.57-5.33h4.73a11.2,11.2,0,0,1-1.53,5.33h20.1a11.1,11.1,0,0,1-1.53-5.2v-6.29a10.16,10.16,0,0,1,10.12-10.12h8.1a10.15,10.15,0,0,1,10.12,10.12v6.16a10.15,10.15,0,0,1-1.55,5.33ZM223.29,289.23h-9.73a5.46,5.46,0,0,0-4.58,5.33v6.16a5.42,5.42,0,0,0,5.39,5.39h8.1a5.42,5.42,0,0,0,5.4-5.39v-6.16a5.43,5.43,0,0,0-4.58-5.33Zm154,16.82a5.46,5.46,0,0,0,4.57-5.33v-6.16a5.42,5.42,0,0,0-5.39-5.39h-8.1a5.41,5.41,0,0,0-5.39,5.39v6.16a5.42,5.42,0,0,0,4.57,5.33Z" transform="translate(-106.04 -274.68)"/></svg>